<svg width="290" height="290" viewBox="0 0 290 290" fill="none" xmlns="http://www.w3.org/2000/svg">
<path d="M0 15C0 6.71573 6.71573 0 15 0H275C283.284 0 290 6.71573 290 15V275C290 283.284 283.284 290 275 290H15C6.71573 290 0 283.284 0 275V15Z" fill="#272727"/>
<path d="M75.745 249V215.85H82.18V224.105H82.505V249H75.745ZM82.505 231.71L81.66 223.845C82.44 221.028 83.7833 218.883 85.69 217.41C87.5967 215.937 89.8717 215.2 92.515 215.2C93.5117 215.2 94.205 215.287 94.595 215.46V221.83C94.3783 221.743 94.075 221.7 93.685 221.7C93.295 221.657 92.8183 221.635 92.255 221.635C89.005 221.635 86.5567 222.48 84.91 224.17C83.3067 225.86 82.505 228.373 82.505 231.71ZM112.026 249.65C108.689 249.65 105.742 248.913 103.186 247.44C100.672 245.967 98.7007 243.93 97.2707 241.33C95.8407 238.73 95.1257 235.74 95.1257 232.36C95.1257 228.937 95.819 225.947 97.2057 223.39C98.6357 220.79 100.629 218.775 103.186 217.345C105.742 215.915 108.667 215.2 111.961 215.2C115.167 215.2 117.941 215.893 120.281 217.28C122.664 218.623 124.484 220.508 125.741 222.935C127.041 225.362 127.691 228.243 127.691 231.58C127.691 232.1 127.669 232.598 127.626 233.075C127.626 233.508 127.582 233.963 127.496 234.44H99.6757V229.37H122.751L121.061 231.385C121.061 227.832 120.259 225.123 118.656 223.26C117.052 221.397 114.821 220.465 111.961 220.465C108.884 220.465 106.436 221.527 104.616 223.65C102.839 225.73 101.951 228.633 101.951 232.36C101.951 236.13 102.839 239.077 104.616 241.2C106.436 243.323 108.949 244.385 112.156 244.385C114.106 244.385 115.796 243.995 117.226 243.215C118.656 242.392 119.717 241.2 120.411 239.64H126.781C125.697 242.76 123.856 245.208 121.256 246.985C118.699 248.762 115.622 249.65 112.026 249.65ZM146.626 249.65C143.463 249.65 140.646 248.913 138.176 247.44C135.706 245.923 133.756 243.865 132.326 241.265C130.939 238.665 130.246 235.697 130.246 232.36C130.246 229.023 130.939 226.077 132.326 223.52C133.756 220.92 135.706 218.883 138.176 217.41C140.646 215.937 143.441 215.2 146.561 215.2C149.204 215.2 151.566 215.698 153.646 216.695C155.726 217.692 157.438 219.078 158.781 220.855C160.124 222.632 160.991 224.733 161.381 227.16H155.011C154.578 225.21 153.624 223.65 152.151 222.48C150.721 221.31 148.901 220.725 146.691 220.725C144.784 220.725 143.116 221.202 141.686 222.155C140.256 223.108 139.151 224.452 138.371 226.185C137.591 227.918 137.201 229.977 137.201 232.36C137.201 234.7 137.591 236.758 138.371 238.535C139.151 240.312 140.256 241.698 141.686 242.695C143.116 243.648 144.806 244.125 146.756 244.125C148.879 244.125 150.678 243.562 152.151 242.435C153.668 241.265 154.643 239.705 155.076 237.755H161.446C161.013 240.138 160.103 242.218 158.716 243.995C157.373 245.772 155.661 247.158 153.581 248.155C151.501 249.152 149.183 249.65 146.626 249.65ZM178.409 249.65C175.506 249.65 172.927 249.022 170.674 247.765C168.464 246.508 166.731 244.753 165.474 242.5C164.217 240.247 163.589 237.647 163.589 234.7C163.589 231.97 164.087 229.435 165.084 227.095C166.081 224.712 167.446 222.632 169.179 220.855C170.956 219.078 172.992 217.692 175.289 216.695C177.586 215.698 180.077 215.2 182.764 215.2C185.797 215.2 188.419 215.828 190.629 217.085C192.882 218.298 194.616 220.01 195.829 222.22C197.086 224.43 197.714 227.03 197.714 230.02C197.714 232.707 197.194 235.242 196.154 237.625C195.157 240.008 193.771 242.11 191.994 243.93C190.217 245.707 188.159 247.115 185.819 248.155C183.522 249.152 181.052 249.65 178.409 249.65ZM178.864 244.125C180.467 244.125 181.984 243.778 183.414 243.085C184.887 242.348 186.166 241.33 187.249 240.03C188.332 238.73 189.177 237.235 189.784 235.545C190.434 233.855 190.759 232.035 190.759 230.085C190.759 227.182 190.001 224.907 188.484 223.26C187.011 221.57 184.996 220.725 182.439 220.725C180.792 220.725 179.232 221.072 177.759 221.765C176.329 222.458 175.072 223.433 173.989 224.69C172.949 225.947 172.104 227.42 171.454 229.11C170.847 230.8 170.544 232.62 170.544 234.57C170.544 237.473 171.281 239.792 172.754 241.525C174.271 243.258 176.307 244.125 178.864 244.125ZM202.642 249V215.85H209.402V249H202.642ZM202.317 209.35V201.745H209.792V209.35H202.317ZM216.942 249V215.85H223.377V223.65H223.702V249H216.942ZM240.472 249V227.68C240.472 225.383 239.887 223.672 238.717 222.545C237.591 221.418 235.901 220.855 233.647 220.855C231.697 220.855 229.964 221.288 228.447 222.155C226.974 223.022 225.804 224.213 224.937 225.73C224.114 227.247 223.702 229.045 223.702 231.125L222.857 223.195C223.941 220.725 225.609 218.775 227.862 217.345C230.116 215.915 232.737 215.2 235.727 215.2C239.281 215.2 242.076 216.197 244.112 218.19C246.149 220.183 247.167 222.827 247.167 226.12V249H240.472ZM251.869 249V240.94H259.864V249H251.869Z" fill="#FAFFED"/>
</svg>
